<svg width="443" height="430" viewBox="0 0 443 430" fill="none" xmlns="http://www.w3.org/2000/svg">
<path fill-rule="evenodd" clip-rule="evenodd" d="M158.136 79.5947C158.136 47.1103 216.072 43.5183 236.591 43.5183C252.376 43.5183 318.111 46.0651 318.111 75.3504V90.5982L305.991 87.0974L306.043 86.3687C283.687 81.0287 259.541 78.2966 234.352 78.2966C212.505 78.2966 191.442 80.3519 171.652 84.3813C172.633 128.658 174.293 204.652 174.293 212.134C174.293 215.789 174.365 219.635 174.433 223.357C174.565 230.45 174.688 237.092 174.293 241.1C169.427 290.568 128.671 339.902 69.361 322.603C60.9119 320.139 55.1068 317.82 50.485 315.287C69.5024 341.372 98.0424 360.889 131.04 373.764L115.259 415.21C111.836 424.202 120.847 432.908 129.605 429.069L214.696 391.778C221.243 392.201 227.804 392.413 234.352 392.413C337.03 392.413 443 340.384 443 237.931C443 178.077 411.118 133.675 361.629 107.098V72.9251C361.629 11.7308 286.164 1.48093 238.737 0.16599C195.904 -1.88913 115.231 14.77 115.231 70.803V164.079C108.804 161.994 101.661 160.842 93.7785 160.842C47.0637 160.842 0 201.273 0 236.936C0 272.599 47.0637 312.727 93.7785 312.727C140.493 312.727 161.053 263.556 162.042 236.02C162.686 218.071 162.133 200.166 161.67 185.173C161.422 177.166 161.201 169.989 161.201 164.079L158.136 79.5947ZM244.099 291.678C257.414 291.678 268.208 270.811 268.208 245.07C268.208 219.329 257.414 198.462 244.099 198.462C230.784 198.462 219.99 219.329 219.99 245.07C219.99 270.811 230.784 291.678 244.099 291.678ZM361.628 291.678C374.943 291.678 385.737 270.811 385.737 245.07C385.737 219.329 374.943 198.462 361.628 198.462C348.314 198.462 337.52 219.329 337.52 245.07C337.52 270.811 348.314 291.678 361.628 291.678Z" fill="#FFB800"/>
<path d="M48.2915 159.327C61.5146 139.141 80.0179 122.52 102.388 109.698L103.426 152.044C99.1679 151.133 97.2194 151.133 91.8683 151.133C73.4854 151.133 59.644 154.365 48.2915 159.327Z" fill="#FFB800"/>
</svg>
