<svg width="55" height="54" viewBox="0 0 55 54" fill="none" xmlns="http://www.w3.org/2000/svg">
<path d="M16.0908 53.3867C15.0034 53.8643 13.8846 52.7811 14.3097 51.6623L18.9666 39.4043C19.3092 38.5026 20.4497 38.2446 21.1398 38.9127L28.3963 45.9381C29.0864 46.6062 28.8806 47.7692 28.0043 48.1542L16.0908 53.3867Z" fill="white"/>
<path fill-rule="evenodd" clip-rule="evenodd" d="M29.3734 5.41475C26.8259 5.41475 19.633 5.86168 19.633 9.90354L20.0135 20.4155C20.0135 22.5278 20.2406 25.9406 20.1179 29.3668C19.9952 32.7929 17.4426 38.9109 11.6428 38.9109C5.84309 38.9109 0 33.9181 0 29.4807C0 25.0433 5.84309 20.0128 11.6428 20.0128C12.6215 20.0128 13.5083 20.156 14.3062 20.4155V8.80963C14.3062 1.83775 24.3219 -0.235054 29.6398 0.0206533C35.528 0.184264 44.8972 1.4596 44.8972 9.07368V14.868H39.4944V9.37545C39.4944 5.73164 31.3331 5.41475 29.3734 5.41475Z" fill="white"/>
<path fill-rule="evenodd" clip-rule="evenodd" d="M5.99636 19.8231C7.63764 17.3124 9.93402 15.245 12.7101 13.65L12.839 18.9179C12.3104 18.8046 12.0685 18.8046 11.4041 18.8046H11.4041C9.12311 18.8046 7.40534 19.2062 5.99636 19.8231ZM3.19141 29.6042C3.19141 31.8084 3.58475 33.825 4.3013 35.653C6.31475 37.2125 8.88338 38.2516 11.4041 38.2516C14.0324 38.2516 15.8905 37.1237 17.1127 35.4986C18.3534 33.8489 18.9563 31.6571 18.9563 29.5666C18.9563 29.4476 18.9572 29.3287 18.958 29.2098C18.9628 28.5108 18.9676 27.8141 18.8053 27.1121V26.8855L18.6883 11.1452C17.3279 11.5411 16.0287 12.0193 14.8026 12.5776V21.5341L13.812 21.2092C13.1004 20.9758 12.3002 20.8437 11.4041 20.8437C8.82647 20.8437 6.19758 21.9393 4.16359 23.5684C3.53027 25.4108 3.19141 27.4252 3.19141 29.6042ZM29.0956 48.8256C20.1029 48.8256 10.9068 45.6041 6.26941 39.2311C6.8427 39.5456 7.56269 39.8336 8.60976 40.1397C15.9732 42.2921 21.0332 36.1537 21.6374 29.9987C21.6863 29.5 21.6711 28.6736 21.6548 27.791V27.7909C21.6462 27.3279 21.6374 26.8494 21.6374 26.3946C21.6374 25.4637 21.4313 16.0084 21.3095 10.4993C23.767 9.99767 26.3826 9.74182 29.0956 9.74182C32.2222 9.74182 35.2194 10.0816 37.9945 10.7458L37.988 10.837L39.8006 11.3617V11.4034H39.9447L42.0664 12.0176C49.7989 15.057 54.9998 21.0676 54.9998 29.6042C54.9998 42.352 41.8434 48.8256 29.0956 48.8256ZM39.9447 11.4034L39.8006 11.3617V11.2334C39.9833 11.2886 40.1649 11.3452 40.3454 11.4034H39.9447ZM33.2966 30.4927C33.2966 33.6955 31.9565 36.2919 30.3034 36.2919C28.6504 36.2919 27.3103 33.6955 27.3103 30.4927C27.3103 27.2899 28.6504 24.6935 30.3034 24.6935C31.9565 24.6935 33.2966 27.2899 33.2966 30.4927ZM47.8891 30.4927C47.8891 33.6955 46.549 36.2919 44.896 36.2919C43.2429 36.2919 41.9028 33.6955 41.9028 30.4927C41.9028 27.2899 43.2429 24.6935 44.896 24.6935C46.549 24.6935 47.8891 27.2899 47.8891 30.4927Z" fill="white"/>
</svg>
